# xmcd CD database file
#
# Track frame offsets:
#	150
#	13060
#	23572
#	36497
#	54353
#	69163
#	97004
#	115900
#	127565
#	141737
#	153662
#	180701
#	208110
#	221113
#	226999
#
# Disc length: 3198 seconds
#
# Revision: 0
# Processed by: cddbd v1.5.1PL0 Copyright (c) Steve Scherf et al.
# Submitted via: CDex 1.60beta1
#
DISCID=d50c7c0f
DTITLE=Lightnin' Slim - The Roots Of Blues Music In America
DYEAR=2002
DGENRE=Blues
TTITLE0=Lightnin' Slim - That's Alright
TTITLE1=Lightnin' Slim - My Babe
TTITLE2=Otis Spann - Riverside Blues
TTITLE3=James Cotton - V-8 Ford
TTITLE4=Big Bill Broonzy - Baby Please Don't Go
TTITLE5=B.B. King - Sweet Sixteen
TTITLE6=Mississippi Fred McDowell - (What's A Matter With) Papa's Little Angel
TTITLE7=James Cotton - Southside Boogie
TTITLE8=J.L. Hooker - Serves Me Right To Suffer
TTITLE9=Sam Lightnin' Hopkins - House Up On The Hill
TTITLE10=Mississippi Fred McDowell - Levee Camp Blues
TTITLE11=Bukka White - Atlanta Special
TTITLE12=Mississippi John Hart - Spike Driver's Blues
TTITLE13=Leadbelly - Big Fat Woman
TTITLE14=T-Bone Walker - Treat Your Daddy Well
EXTD=YEAR: 2002
EXTT0=
EXTT1=
EXTT2=
EXTT3=
EXTT4=
EXTT5=
EXTT6=
EXTT7=
EXTT8=
EXTT9=
EXTT10=
EXTT11=
EXTT12=
EXTT13=
EXTT14=
PLAYORDER=
